# xmcd
#
# Track frame offsets:
#	150
#	17417
#	35317
#	55516
#	76101
#	96543
#	117898
#	138421
#	155432
#	168188
#	181466
#	193832
#	213844
#
# Disc length: 2988 seconds
#
# Revision: 1
# Processed by: cddbd v1.4PL0 Copyright (c) Steve Scherf et al.
# Submitted via: audiograbber 1.81.02
#
DISCID=9f0baa0d
DTITLE=John Cowan - Always Take Me Back
DYEAR=2002
DGENRE=
TTITLE0=They Always Take Me Back
TTITLE1=Someone Give Me a Stone
TTITLE2=Sittin' On Top of The World
TTITLE3=Long Distance Runaround
TTITLE4=Blood
TTITLE5=18 Years
TTITLE6=Read On
TTITLE7=In My Father's Field
TTITLE8=Two Quarts Low
TTITLE9=Call Me
TTITLE10=Monroe's Mule
TTITLE11=Love Alone
TTITLE12=Mr. Banjo
EXTD=
EXTT0=
EXTT1=
EXTT2=
EXTT3=
EXTT4=
EXTT5=
EXTT6=
EXTT7=
EXTT8=
EXTT9=
EXTT10=
EXTT11=
EXTT12=
PLAYORDER=
